# AST/ASF file generated using VICON BodyLanguage
# -----------------------------------------------
:version 1.10
:name VICON
:units
  mass 1.0
  length 0.45
  angle deg
:documentation
   .ast/.asf automatically generated from VICON data using
   VICON BodyBuilder and BodyLanguage model FoxedUp or BRILLIANT.MOD
:root
   order TX TY TZ RX RY RZ
   axis XYZ
   position 0 0 0  
   orientation 0 0 0 
:bonedata
  begin
     id 1 
     name lhipjoint
     direction 0.535335 -0.74333 0.401095 
     length 2.04549 
     axis 0 0 0  XYZ
  end
  begin
     id 2 
     name lfemur
     direction 0.34202 -0.939693 0  
     length 6.95643  
     axis 0 0 20  XYZ
    dof rx ry rz
    limits (-160.0 20.0)
           (-70.0 70.0)
           (-60.0 70.0)
  end
  begin
     id 3 
     name ltibia
     direction 0.34192 -0.939729 0   
     length 5.55969   
     axis 0 0 20   XYZ
    dof rx
    limits (-10.0 170.0)
  end
  begin
     id 4 
     name lfoot
     direction 0.216943 -0.596046 0.773088   
     length 2.27918   
     axis -90 7.62852e-016 20   XYZ
    dof rx rz
    limits (-45.0 90.0)
           (-70.0 20.0)
  end
  begin
     id 5 
     name ltoes
     direction 1.53519e-011 -4.21748e-011 1   
     length 1.05562   
     axis -90 7.62852e-016 20   XYZ
    dof rx
    limits (-90.0 20.0)
  end
  begin
     id 6 
     name rhipjoint
     direction -0.576368 -0.719173 0.38806   
     length 2.1142  
     axis 0 0 0  XYZ 
  end
  begin
     id 7 
     name rfemur
     direction -0.34202 -0.939693 0   
     length 7.07928   
     axis 0 0 -20   XYZ
    dof rx ry rz
    limits (-160.0 20.0)
           (-70.0 70.0)
           (-70.0 60.0)
  end
  begin
     id 8 
     name rtibia
     direction -0.34202 -0.939693 0   
     length 5.79974   
     axis 0 0 -20   XYZ
    dof rx
    limits (-10.0 170.0)
 end
 begin
     id 9 
     name rfoot
     direction -0.189288 -0.520065 0.832888   
     length 2.42173  
     axis -90 -7.62852e-016 -20   XYZ
    dof rx rz
    limits (-45.0 90.0)
           (-20.0 70.0)
  end
  begin
     id 10 
     name rtoes
     direction -1.53574e-011 -4.21658e-011 1   
     length 1.14469   
     axis -90 -7.62852e-016 -20   XYZ
    dof rx
    limits (-90.0 20.0)
  end
  begin
     id 11 
     name lowerback
     direction -0.00135702 0.993803 0.111144   
     length 1.91308   
     axis 0 0 0   XYZ
    dof rx ry rz
    limits (-20.0 45.0)
           (-30.0 30.0)
           (-30.0 30.0)
  end
  begin
     id 12 
     name upperback
     direction -0.0056745 0.999813 0.0184631   
     length 1.9212   
     axis 0 0 0   XYZ
    dof rx ry rz
    limits (-20.0 45.0)
           (-30.0 30.0)
           (-30.0 30.0)
  end
  begin
     id 13 
     name thorax
     direction -0.00733434 0.999426 -0.0330788   
     length 1.94196   
     axis 0 0 0   XYZ
    dof rx ry rz
    limits (-20.0 45.0)
           (-30.0 30.0)
           (-30.0 30.0)
  end
  begin
     id 14 
     name lowerneck
     direction 0.0563074 0.996944 -0.0541571   
     length 2.34257   
     axis 0 0 0   XYZ
    dof rx ry rz
    limits (-20.0 45.0)
           (-30.0 30.0)
           (-30.0 30.0)
  end
  begin
     id 15 
     name upperneck
     direction -0.0544519 0.976166 -0.210085   
     length 2.32506   
     axis 0 0 0   XYZ
    dof rx ry rz
    limits (-20.0 45.0)
           (-30.0 30.0)
           (-30.0 30.0)
  end
  begin
     id 16
     name head
     direction -0.0226035 0.997615 -0.0652205  
     length 2.3648  
     axis 0 0 0   XYZ
    dof rx ry rz
    limits (-20.0 45.0)
           (-30.0 30.0)
           (-30.0 30.0)
  end
  begin
     id 17 
     name lclavicle
     direction 0.92109 0.381297 -0.0787716  
     length 4.0487  
     axis 0 0 0   XYZ
    dof ry rz
    limits (-20.0 10.0)
           (0.0 20.0)
  end
  begin
     id 18 
     name lhumerus
     direction 1 -4.48986e-011 3.56724e-027   
     length 4.94991   
     axis 180 -30 -90   XYZ
    dof rx ry rz
    limits (-60.0 90.0)
           (-90.0 90.0)
           (-90.0 90.0)
  end
  begin
     id 19
     name lradius
     direction 1 -4.48981e-011 8.62147e-027   
     length 2.7606   
     axis 180 -30 -90   XYZ
    dof rx
    limits (-10.0 170.0)
  end
  begin
     id 20
     name lwrist
     direction 1 -4.48989e-011 1.59799e-026   
     length 1.3803   
     axis -1.17785e-014 90 90   XYZ
    dof ry
    limits (-180.0 0.0)
 end
  begin
     id 21 
     name lhand
     direction 1 -4.48896e-011 3.19599e-026   
     length 0.843936   
     axis -2.03931e-014 90 90   XYZ
    dof rx rz
    limits (-90.0 90.0)
           (-45.0 45.0)
  end
  begin
     id 22 
     name lfingers
     direction 1 -4.48887e-011 6.39197e-026   
     length 0.680403   
     axis -4.07862e-014 90 90   XYZ
    dof rx
    limits (0.0 90.0)
  end
  begin
     id 23
     name lthumb
     direction 0.707107 -6.348e-011 0.707107   
     length 0.976926   
     axis -90 45 2.85299e-015   XYZ
    dof rx rz
    limits (-45.0 45.0)
           (-45.0 45.0)
  end
  begin
     id 24 
     name rclavicle
     direction -0.951104 0.307692 -0.026953   
     length 4.21801  
     axis 0 0 0   XYZ 
    dof ry rz
    limits (-10.0 20.0)
           (-20.0 0.0)
  end
  begin
     id 25 
     name rhumerus
     direction -1 -4.4896e-011 -1.8171e-018  
     length 4.32982   
     axis 180 30 90   XYZ
    dof rx ry rz
    limits (-90.0 60.0)
           (-90.0 90.0)
           (-90.0 90.0)
  end
  begin
     id 26 
     name rradius
     direction -1 -4.48959e-011 8.25165e-027   
     length 3.20057   
     axis 180 30 90   XYZ
    dof rx
    limits (-10.0 170.0)
  end
  begin
     id 27 
     name rwrist
     direction -1 -4.48997e-011 1.59799e-026   
     length 1.60029   
     axis -1.17785e-014 -90 -90   XYZ
    dof ry
    limits (-180.0 0.0)
  end
  begin
     id 28
     name rhand
     direction -1 -4.49023e-011 3.19599e-026   
     length 0.960433   
     axis -2.03931e-014 -90 -90   XYZ
    dof rx rz
    limits (-90.0 90.0)
           (-45.0 45.0)
  end
  begin
     id 29
     name rfingers
     direction -1 -4.48802e-011 6.39197e-026   
     length 0.774326   
     axis -4.07862e-014 -90 -90   XYZ
    dof rx
    limits (0.0 90.0)
  end
  begin
     id 30
     name rthumb
     direction -0.707107 -6.34876e-011 0.707107   
     length 1.11178   
     axis -90 -45 -2.85299e-015   XYZ
    dof rx rz
    limits (-45.0 45.0)
           (-45.0 45.0)
  end
:hierarchy
  begin
    root lhipjoint rhipjoint lowerback
    lhipjoint lfemur
    lfemur ltibia
    ltibia lfoot
    lfoot ltoes
    rhipjoint rfemur
    rfemur rtibia
    rtibia rfoot
    rfoot rtoes
    lowerback upperback
    upperback thorax
    thorax lowerneck lclavicle rclavicle
    lowerneck upperneck
    upperneck head
    lclavicle lhumerus
    lhumerus lradius
    lradius lwrist
    lwrist lhand lthumb
    lhand lfingers
    rclavicle rhumerus
    rhumerus rradius
    rradius rwrist
    rwrist rhand rthumb
    rhand rfingers
end

#!OML:ASF C:\KaitlinTest1\Natural Motions\Nikki\Session 2\Nikki.ASF
:FULLY-SPECIFIED
:DEGREES
173
root -13.669 16.6504 4.61161 -117.586 87.8283 -125.957
lowerback -10.4697 -0.901463 2.87684
upperback -3.44325 -1.33095 -1.27905
thorax 2.18072 -0.622931 -3.10677
lowerneck -5.30128 -11.82 -9.79084
upperneck 6.14511 41.081 5.92177
head 166.799 61.8374 -38.1814
rclavicle -5.93869e-015 -3.97569e-015
rhumerus -40.3498 -28.9102 -80.1671
rradius 17.2125
rwrist 26.9146
rhand -36.5742 2.25448
rfingers 7.12502
rthumb -9.6638 -27.5038
lclavicle -5.93869e-015 -3.97569e-015
lhumerus -39.837 16.1721 81.0606
lradius 20.538
lwrist -41.5643
lhand -33.4576 3.27502
lfingers 7.12502
lthumb -6.65597 33.1504
rfemur -5.88082 -13.9188 20.0138
rtibia 12.2948
rfoot -11.6331 10.851
rtoes -3.10104e-014
lfemur -11.2197 14.4048 -18.8866
ltibia 15.6671
lfoot -4.94172 -15.2825
ltoes 2.22639e-014
174
root -13.6696 16.6497 4.61358 -116.042 87.821 -124.399
lowerback -10.4109 -0.884064 2.90384
upperback -3.42205 -1.3113 -1.26345
thorax 2.17163 -0.613695 -3.10237
lowerneck -5.317 -11.8064 -9.81363
upperneck 6.13067 41.0739 5.91615
head 166.867 61.8433 -38.1356
rclavicle -4.91992e-015 -9.54166e-015
rhumerus -40.4071 -28.9255 -80.0757
rradius 17.1829
rwrist 27.279
rhand -36.7013 2.37643
rfingers 7.12502
rthumb -9.78643 -27.3762
lclavicle -4.91992e-015 -9.54166e-015
lhumerus -39.8328 16.189 81.0646
lradius 20.5874
lwrist -41.5065
lhand -33.4046 3.24409
lfingers 7.12502
lthumb -6.60485 33.1211
rfemur -5.89431 -13.872 20.0549
rtibia 12.3343
rfoot -11.6516 10.8475
rtoes 4.77083e-015
lfemur -11.2007 14.3919 -18.8347
ltibia 15.6773
lfoot -4.96862 -15.204
ltoes 1.27222e-014
175
root -13.6695 16.6502 4.61318 -117.698 87.798 -126.024
lowerback -10.3042 -0.900416 2.89649
upperback -3.41374 -1.33087 -1.26206
thorax 2.12055 -0.624813 -3.09665
lowerneck -5.35975 -11.8259 -9.8095
upperneck 6.13221 41.1075 5.91072
head 166.807 61.8042 -38.1886
rclavicle 1.29955e-014 1.07344e-014
rhumerus -40.4154 -28.845 -80.105
rradius 17.2977
rwrist 27.0292
rhand -36.5108 2.14736
rfingers 7.12502
rthumb -9.60264 -27.6138
lclavicle 1.29955e-014 1.07344e-014
lhumerus -39.8482 16.13 81.0818
lradius 20.6533
lwrist -41.5565
lhand -33.2844 3.34654
lfingers 7.12502
lthumb -6.48878 33.2271
rfemur -5.86003 -13.9344 20.0345
rtibia 12.3629
rfoot -11.6971 10.84
rtoes -1.19271e-014
lfemur -11.1838 14.3773 -18.8432
ltibia 15.6925
lfoot -4.97995 -15.2431
ltoes 1.59028e-015
176
root -13.6695 16.6508 4.61415 -118.282 87.8044 -126.594
lowerback -10.2295 -0.913225 2.88013
upperback -3.3872 -1.3456 -1.28033
thorax 2.10601 -0.632797 -3.10674
lowerneck -5.41082 -11.8469 -9.75306
upperneck 6.08229 40.9827 5.88664
head 166.717 61.9212 -38.2459
rclavicle -1.26725e-014 6.75868e-015
rhumerus -40.4427 -28.894 -80.0611
rradius 17.3155
rwrist 27.2172
rhand -36.508 2.2932
rfingers 7.12502
rthumb -9.59999 -27.4681
lclavicle -1.26725e-014 6.75868e-015
lhumerus -39.8058 16.0495 81.0915
lradius 20.6583
lwrist -41.4503
lhand -33.3402 3.32991
lfingers 7.12502
lthumb -6.54266 33.2088
rfemur -5.84546 -13.9276 20.0183
rtibia 12.3755
rfoot -11.7219 10.8035
rtoes -4.53229e-014
lfemur -11.1852 14.3839 -18.854
ltibia 15.7185
lfoot -4.95137 -15.2772
ltoes 4.29375e-014
177
root -13.6695 16.6505 4.6143 -118.927 87.8039 -127.254
lowerback -10.1815 -0.914827 2.86576
upperback -3.39302 -1.34584 -1.26249
thorax 2.07449 -0.633602 -3.07884
lowerneck -5.44108 -11.852 -9.78405
upperneck 6.07589 40.9983 5.86964
head 166.688 61.9087 -38.2711
rclavicle 1.64743e-014 1.19271e-014
rhumerus -40.4916 -28.9052 -79.9506
rradius 17.3455
rwrist 27.2933
rhand -36.4862 2.27337
rfingers 7.12502
rthumb -9.57895 -27.4889
lclavicle 1.64743e-014 1.19271e-014
lhumerus -39.8267 16.0768 81.1283
lradius 20.6552
lwrist -41.3696
lhand -33.3659 3.32759
lfingers 7.12502
lthumb -6.56745 33.2058
rfemur -5.85868 -13.919 20.0029
rtibia 12.3904
rfoot -11.7108 10.7703
rtoes 1.90833e-014
lfemur -11.2022 14.3351 -18.8677
ltibia 15.7294
lfoot -4.97039 -15.2546
ltoes 5.24792e-014
178
root -13.6701 16.6502 4.61534 -119.217 87.8123 -127.56
lowerback -10.1463 -0.925055 2.84388
upperback -3.37616 -1.35747 -1.26206
thorax 2.07241 -0.639565 -3.06676
lowerneck -5.495 -11.8741 -9.7489
upperneck 6.06794 41.0025 5.86072
head 166.591 61.8817 -38.3413
rclavicle -2.31087e-014 -2.50469e-014
rhumerus -40.4363 -28.7142 -80.0765
rradius 17.4353
rwrist 27.0666
rhand -36.5331 2.29834
rfingers 7.12502
rthumb -9.62422 -27.4618
lclavicle -2.31087e-014 -2.50469e-014
lhumerus -39.804 16.0353 81.1486
lradius 20.6835
lwrist -41.2751
lhand -33.4965 3.35
lfingers 7.12502
lthumb -6.69351 33.2242
rfemur -5.91324 -14.0086 20.0128
rtibia 12.4495
rfoot -11.7822 10.8209
rtoes -5.56597e-015
lfemur -11.2234 14.356 -18.8855
ltibia 15.7186
lfoot -4.9443 -15.2923
ltoes -2.70347e-014
179
root -13.6704 16.6516 4.61585 -119.747 87.8016 -128.114
lowerback -10.0555 -0.932679 2.82899
upperback -3.42109 -1.36313 -1.24643
thorax 1.97627 -0.644301 -3.03985
lowerneck -5.47207 -11.8668 -9.77124
upperneck 6.11807 41.1436 5.89502
head 166.682 61.7195 -38.2889
rclavicle 1.04362e-014 6.36111e-015
rhumerus -40.5356 -28.611 -80.0155
rradius 17.483
rwrist 26.9577
rhand -36.5857 2.27023
rfingers 7.12502
rthumb -9.67494 -27.4876
lclavicle 1.04362e-014 6.36111e-015
lhumerus -39.9401 16.1097 81.0567
lradius 20.7801
lwrist -41.6974
lhand -33.3731 3.35391
lfingers 7.12502
lthumb -6.57438 33.2319
rfemur -5.95638 -13.9504 20.0103
rtibia 12.4873
rfoot -11.7567 10.7469
rtoes 2.14687e-014
lfemur -11.2682 14.391 -18.8993
ltibia 15.7198
lfoot -4.95292 -15.3535
ltoes -1.74931e-014
180
root -13.6713 16.6506 4.61665 -120.267 87.7983 -128.634
lowerback -10.024 -0.936628 2.81566
upperback -3.3737 -1.36837 -1.25719
thorax 2.00796 -0.646574 -3.04407
lowerneck -5.58224 -11.899 -9.7029
upperneck 6.10084 41.1661 5.90018
head 166.602 61.7122 -38.3793
rclavicle -3.40419e-015 -7.95139e-016
rhumerus -40.5201 -28.5936 -80.0129
rradius 17.498
rwrist 27.05
rhand -36.6408 2.23121
rfingers 7.12502
rthumb -9.72808 -27.5241
lclavicle -3.40419e-015 -7.95139e-016
lhumerus -39.8643 15.9433 81.1483
lradius 20.8005
lwrist -41.4426
lhand -33.2871 3.49826
lfingers 7.12502
lthumb -6.49135 33.3788
rfemur -5.98462 -13.9862 20.0097
rtibia 12.5293
rfoot -11.7437 10.7709
rtoes -3.33958e-014
lfemur -11.2661 14.3623 -18.905
ltibia 15.7158
lfoot -4.96635 -15.3397
ltoes -2.8625e-014
181
root -13.6695 16.6502 4.61779 -121.001 87.7706 -129.376
lowerback -10.0299 -0.929384 2.82565
upperback -3.33556 -1.3615 -1.25759
thorax 2.05106 -0.642453 -3.05008
lowerneck -5.61021 -11.91 -9.70882
upperneck 6.08535 41.1579 5.899
head 166.671 61.6759 -38.333
rclavicle 1.30204e-014 -7.95139e-015
rhumerus -40.5104 -28.4257 -80.0666
rradius 17.5968
rwrist 26.7454
rhand -36.564 2.3816
rfingers 7.12502
rthumb -9.65396 -27.3772
lclavicle 1.30204e-014 -7.95139e-015
lhumerus -39.8592 15.9979 81.0994
lradius 20.8005
lwrist -41.6073
lhand -33.4406 3.3477
lfingers 7.12502
lthumb -6.63955 33.2236
rfemur -5.97792 -13.9564 20.0227
rtibia 12.5412
rfoot -11.7632 10.7084
rtoes 4.85035e-014
lfemur -11.2743 14.3808 -18.8927
ltibia 15.7233
lfoot -4.96647 -15.4098
ltoes 6.04305e-014
